<?xml version="1.0" encoding="UTF-8" standalone="no"?>
<!-- Generator: Adobe Illustrator 22.0.1, SVG Export Plug-In . SVG Version: 6.00 Build 0)  -->

<svg
   xmlns:dc="http://purl.org/dc/elements/1.1/"
   xmlns:cc="http://creativecommons.org/ns#"
   xmlns:rdf="http://www.w3.org/1999/02/22-rdf-syntax-ns#"
   xmlns:svg="http://www.w3.org/2000/svg"
   xmlns="http://www.w3.org/2000/svg"
   xmlns:sodipodi="http://sodipodi.sourceforge.net/DTD/sodipodi-0.dtd"
   xmlns:inkscape="http://www.inkscape.org/namespaces/inkscape"
   version="1.1"
   id="Ebene_1"
   x="0px"
   y="0px"
   viewBox="1318.634 0 453.5 453.5"
   enable-background="new 1318.634 0 612 792"
   xml:space="preserve"
   inkscape:version="0.91 r13725"
   sodipodi:docname="elevator-available-alt.svg"
   width="453.5"
   height="453.5"><metadata
     id="metadata100"><rdf:RDF><cc:Work
         rdf:about=""><dc:format>image/svg+xml</dc:format><dc:type
           rdf:resource="http://purl.org/dc/dcmitype/StillImage" /><dc:title /></cc:Work></rdf:RDF></metadata><defs
     id="defs98" /><sodipodi:namedview
     pagecolor="#ffffff"
     bordercolor="#666666"
     borderopacity="1"
     objecttolerance="10"
     gridtolerance="10"
     guidetolerance="10"
     inkscape:pageopacity="0"
     inkscape:pageshadow="2"
     inkscape:window-width="1920"
     inkscape:window-height="1056"
     id="namedview96"
     showgrid="false"
     inkscape:zoom="2.0365303"
     inkscape:cx="313.98902"
     inkscape:cy="130.20099"
     inkscape:window-x="0"
     inkscape:window-y="24"
     inkscape:window-maximized="1"
     inkscape:current-layer="Ebene_1" /><polygon
     points="1832.634,562 1412.634,562 1412.634,142 1832.634,142 "
     id="polygon10"
     style="fill:#232856"
     transform="matrix(1.0424983,0,0,1.0433101,-146.20915,-140.65854)" /><polygon
     stroke-miterlimit="3.8637"
     points="1832.634,562 1412.634,562 1412.634,142 1832.634,142 "
     id="polygon14"
     style="fill:none;stroke:#232856;stroke-width:15;stroke-miterlimit:3.86369991"
     transform="matrix(1.0424983,0,0,1.0433101,-146.20915,-140.65854)" /><polygon
     points="1829.533,556.1 1417.134,556.1 1417.134,145.9 1829.533,145.9 "
     id="polygon20"
     style="fill:#232856"
     transform="matrix(1.0424983,0,0,1.0433101,-146.20915,-140.65854)" /><polygon
     stroke-miterlimit="3.8637"
     points="1417.134,556.1 1417.134,145.9 1829.533,145.9 1829.533,556.1 "
     id="polygon24"
     style="fill:none;stroke:#ffffff;stroke-width:2.05767229;stroke-miterlimit:3.86369991;stroke-dasharray:none"
     transform="matrix(1.0662594,0,0,1.0720871,-186.26064,-148.82646)" /><path
     style="fill:#ffffff"
     inkscape:connector-curvature="0"
     id="path28"
     d="m 1423.7234,127.47216 244.4659,0 c 16.68,0 30.2324,13.56303 30.2324,30.25599 l 0,230.57153 c 0,16.69296 -13.5524,30.25599 -30.2324,30.25599 l -244.4659,0 c -16.6799,0 -30.2324,-13.56303 -30.2324,-30.25599 l 0,-230.57153 c 0,-16.69296 13.4493,-30.25599 30.2324,-30.25599 z m -2.6062,6.25986 249.6783,0 c 11.4675,0 20.85,9.38979 20.85,20.8662 l 0,236.30974 c 0,11.47641 -9.3825,20.8662 -20.85,20.8662 l -249.6783,0 c -11.4675,0 -20.85,-9.38979 -20.85,-20.8662 l 0,-236.30974 c 0,-11.47641 9.2793,-20.8662 20.85,-20.8662 z" /><path
     style="fill:none;stroke:#ffffff;stroke-width:0.26072603;stroke-miterlimit:3.86369991"
     inkscape:connector-curvature="0"
     id="path30"
     d="m 1423.7234,127.47216 244.4659,0 c 16.68,0 30.2324,13.56303 30.2324,30.25599 l 0,230.57153 c 0,16.69296 -13.5524,30.25599 -30.2324,30.25599 l -244.4659,0 c -16.6799,0 -30.2324,-13.56303 -30.2324,-30.25599 l 0,-230.57153 c 0,-16.69296 13.4493,-30.25599 30.2324,-30.25599 z m -2.6062,6.25986 249.6783,0 c 11.4675,0 20.85,9.38979 20.85,20.8662 l 0,236.30974 c 0,11.47641 -9.3825,20.8662 -20.85,20.8662 l -249.6783,0 c -11.4675,0 -20.85,-9.38979 -20.85,-20.8662 l 0,-236.30974 c 0,-11.47641 9.2793,-20.8662 20.85,-20.8662 z"
     stroke-miterlimit="3.8637" /><polygon
     points="1569.233,241.6 1569.233,199.8 1586.934,215.3 1586.934,203 1563.033,179.3 1539.634,203 1539.634,215.3 1557.334,199.7 1557.334,241.6 "
     id="polygon86"
     style="fill:#ffffff"
     transform="matrix(1.0424983,0,0,1.0433101,-146.20915,-140.65854)" /><polygon
     points="1674.884,179 1674.884,220.8 1657.282,205.4 1657.282,217.6 1681.183,241.3 1704.483,217.6 1704.483,205.3 1686.782,220.9 1686.782,179 "
     id="polygon88"
     style="fill:#ffffff"
     transform="matrix(1.0424983,0,0,1.0433101,-146.20915,-140.65854)" /><g
     id="g90"
     transform="matrix(1.0424983,0,0,1.0433101,-146.20915,-140.65854)"><rect
       x="1443.634"
       y="167.33299"
       width="15"
       height="368.66699"
       id="rect92"
       style="fill:#ffffff" /><rect
       x="1785.384"
       y="167.33299"
       width="15"
       height="368.66699"
       id="rect94"
       style="fill:#ffffff" /></g></svg>