<?xml version="1.0" encoding="UTF-8" standalone="no"?>
<!-- Generator: Adobe Illustrator 22.0.1, SVG Export Plug-In . SVG Version: 6.00 Build 0)  -->

<svg
   xmlns:dc="http://purl.org/dc/elements/1.1/"
   xmlns:cc="http://creativecommons.org/ns#"
   xmlns:rdf="http://www.w3.org/1999/02/22-rdf-syntax-ns#"
   xmlns:svg="http://www.w3.org/2000/svg"
   xmlns="http://www.w3.org/2000/svg"
   xmlns:sodipodi="http://sodipodi.sourceforge.net/DTD/sodipodi-0.dtd"
   xmlns:inkscape="http://www.inkscape.org/namespaces/inkscape"
   version="1.1"
   id="Ebene_1"
   x="0px"
   y="0px"
   viewBox="1398 0 453.5 453.5"
   enable-background="new 1398 0 612 792"
   xml:space="preserve"
   inkscape:version="0.91 r13725"
   sodipodi:docname="Lernbehinderung.svg"
   width="453.5"
   height="453.5"><metadata
     id="metadata43"><rdf:RDF><cc:Work
         rdf:about=""><dc:format>image/svg+xml</dc:format><dc:type
           rdf:resource="http://purl.org/dc/dcmitype/StillImage" /><dc:title /></cc:Work></rdf:RDF></metadata><defs
     id="defs41" /><sodipodi:namedview
     pagecolor="#ffffff"
     bordercolor="#666666"
     borderopacity="1"
     objecttolerance="10"
     gridtolerance="10"
     guidetolerance="10"
     inkscape:pageopacity="0"
     inkscape:pageshadow="2"
     inkscape:window-width="1920"
     inkscape:window-height="1056"
     id="namedview39"
     showgrid="false"
     inkscape:zoom="1.2968228"
     inkscape:cx="403.19417"
     inkscape:cy="145.61975"
     inkscape:window-x="0"
     inkscape:window-y="24"
     inkscape:window-maximized="1"
     inkscape:current-layer="Ebene_1" /><polygon
     style="fill:#232856"
     id="polygon12"
     points="1926,141.372 1926,561.372 1506,561.372 1506,141.372 "
     transform="matrix(1.0797619,0,0,1.0797619,-228.12143,-152.6481)" /><path
     d="m 1776.3388,264.07791 c -6.2071,-10.50377 -30.2427,-41.04416 -27.8553,-53.69777 2.3874,-12.65361 32.2289,-85.2288 -42.2556,-126.767784 -74.4845,-41.53899 -198.3869,-23.63447 -221.3047,65.890064 -22.8607,89.29488 49.0462,153.65019 49.4158,153.98139 0,0.003 0,-9.8e-4 0,0.003 0.1745,0.32923 29.9578,56.63914 -2.1055,95.20029 -0.018,0.0207 0,0.0532 0.025,0.0532 l 127.3819,0 c 0.018,0 0.033,-0.0148 0.033,-0.0335 l -0.089,-4.26321 c 0,0 -1.7457,-50.85103 34.0633,-49.4178 35.81,1.43224 39.2344,11.99614 47.8288,-1.43323 8.5925,-13.42444 -0.1114,-20.96812 5.6738,-26.68526 0,-0.003 0,-0.003 0.01,-0.005 0.1261,-0.066 8.8408,-4.62595 8.9601,-10.4328 0.1065,-5.21245 -4.5264,-6.82311 -5.5348,-7.11094 -0.034,-0.01 -0.028,-0.0601 0.01,-0.0621 1.375,-0.0946 9.381,-0.89109 9.7083,-6.67329 0.3588,-6.32631 -3.9389,-6.80438 6.0877,-10.98085 10.0287,-4.17746 16.1598,-7.05969 9.9528,-17.56445 z M 1617.827,96.99836 c 0.7236,-0.23657 1.4343,-0.4554 2.1361,-0.65945 l -100.2472,100.24616 c -3.8009,-3.5949 -7.0744,-8.73935 -8.8073,-15.52895 l 90.4087,-90.408725 c 9.6157,1.4559 16.2071,6.145935 16.4871,6.348005 0.01,0.005 0.016,0.006 0.023,0.003 z m -95.0455,40.93474 c 0.01,-0.004 0.01,-0.007 0.01,-0.0138 0.05,-0.3519 1.6146,-10.80343 11.0922,-21.94496 12.0908,-13.25095 26.8272,-13.88674 32.0535,-13.6413 l -54.7919,54.79191 c 3.4312,-13.47964 11.3603,-19.0026 11.6373,-19.19185 z m 13.9794,87.98288 c -4.3973,-5.90344 -5.4392,-12.52153 -5.516,-17.1603 L 1644.2363,95.76523 c 6.2544,2.02071 10.6388,5.67771 13.5693,9.10603 l -121.0447,121.04472 z m 147.7852,-62.04677 c -10.3815,17.86311 -25.3053,19.41167 -33.12,18.80053 l -4.2149,13.02227 c 0.01,0.005 0.01,0.0138 0.01,0.0217 -2.5737,22.36586 -28.1736,24.23674 -36.2476,24.2673 -0.347,5.63434 -3.7152,17.84636 -25.1032,25.18894 -1.1168,0.40218 -2.2534,0.76689 -3.4135,1.0833 -0.138,0.0404 -0.2711,0.0818 -0.4111,0.12223 -0.038,0.0108 -0.076,0.0197 -0.1143,0.0306 -0.042,0.0108 -0.085,0.0227 -0.1272,0.0335 -1.5998,0.4485 -3.1129,0.75506 -4.5471,0.9384 -2.0789,0.3381 -4.1922,0.57073 -6.3312,0.67522 -15.6699,0.759 -19.9627,-9.84039 -20.6586,-11.9439 l 120.9235,-120.92352 c 15.7389,6.75904 25.8907,27.11601 13.3564,48.68344 z"
     id="path37"
     inkscape:connector-curvature="0"
     style="fill:#ffffff" /><rect
     style="opacity:1;fill:none;fill-opacity:1;fill-rule:nonzero;stroke:#ffffff;stroke-width:2.21167636;stroke-linejoin:round;stroke-miterlimit:4;stroke-dasharray:none;stroke-dashoffset:0;stroke-opacity:1"
     id="rect3443"
     width="441.78833"
     height="441.78833"
     x="1403.1058"
     y="6.6058316" /></svg>