<?xml version="1.0" encoding="UTF-8" standalone="no"?>
<!-- Generator: Adobe Illustrator 22.0.1, SVG Export Plug-In . SVG Version: 6.00 Build 0)  -->

<svg
   xmlns:dc="http://purl.org/dc/elements/1.1/"
   xmlns:cc="http://creativecommons.org/ns#"
   xmlns:rdf="http://www.w3.org/1999/02/22-rdf-syntax-ns#"
   xmlns:svg="http://www.w3.org/2000/svg"
   xmlns="http://www.w3.org/2000/svg"
   xmlns:sodipodi="http://sodipodi.sourceforge.net/DTD/sodipodi-0.dtd"
   xmlns:inkscape="http://www.inkscape.org/namespaces/inkscape"
   version="1.1"
   id="svg2"
   inkscape:version="0.91 r13725"
   sodipodi:docname="Toilette-ist-rollstuhlgerecht.svg"
   x="0px"
   y="0px"
   viewBox="0 0 453.5 453.5"
   style="enable-background:new 0 0 453.5 453.5;"
   xml:space="preserve"><metadata
     id="metadata75"><rdf:RDF><cc:Work
         rdf:about=""><dc:format>image/svg+xml</dc:format><dc:type
           rdf:resource="http://purl.org/dc/dcmitype/StillImage" /><dc:title /></cc:Work></rdf:RDF></metadata><defs
     id="defs73" /><style
     type="text/css"
     id="style3">
	.st0{fill:#232856;}
	.st1{fill:none;stroke:#232856;stroke-width:15;stroke-miterlimit:3.8637;}
	.st2{fill:#FFFFFF;}
	.st3{fill:none;stroke:#FFFFFF;stroke-width:5.4971;stroke-miterlimit:3.8637;}
	.st4{fill:none;stroke:#232856;stroke-width:5.4971;stroke-miterlimit:3.8637;}
	.st5{fill:none;stroke:#232856;stroke-width:4;stroke-miterlimit:10;}
</style><sodipodi:namedview
     bordercolor="#666666"
     borderopacity="1"
     gridtolerance="10"
     guidetolerance="10"
     id="namedview4"
     inkscape:current-layer="svg2"
     inkscape:cx="265.71411"
     inkscape:cy="217.60962"
     inkscape:pageopacity="0"
     inkscape:pageshadow="2"
     inkscape:window-height="1056"
     inkscape:window-maximized="1"
     inkscape:window-width="1920"
     inkscape:window-x="0"
     inkscape:window-y="24"
     inkscape:zoom="1.4386126"
     objecttolerance="10"
     pagecolor="#ffffff"
     showgrid="false" /><g
     id="Ebene-4_1_"
     transform="matrix(0.99421086,0,0,0.99951465,-18.680077,1.3156445)"><g
       id="g7"><g
         id="g9"><path
           class="st0"
           d="M 227.3,227.3"
           id="path11"
           inkscape:connector-curvature="0"
           style="fill:#232856" /></g><g
         id="g13"><path
           class="st1"
           d="M 227.3,227.3"
           id="path15"
           inkscape:connector-curvature="0"
           style="fill:none;stroke:#232856;stroke-width:15;stroke-miterlimit:3.86369991" /></g></g></g><g
     id="Ebene-5_1_"
     transform="matrix(0.99421086,0,0,0.99951465,-18.680077,1.3156445)"><g
       id="g18"><g
         id="g20"><path
           class="st0"
           d="M 228,226.3"
           id="path22"
           inkscape:connector-curvature="0"
           style="fill:#232856" /></g></g></g><g
     id="g25"
     transform="matrix(0.99421086,0,0,0.99951465,-18.680077,1.3156445)"><g
       id="g27"><g
         id="g29"><path
           style="fill:#ffffff"
           inkscape:connector-curvature="0"
           id="path31"
           d="M 203.7,276.7"
           class="st2" /></g><path
         style="fill:none;stroke:#ffffff;stroke-width:5.49709988;stroke-miterlimit:3.86369991"
         inkscape:connector-curvature="0"
         id="path33"
         d="M 203.7,276.7"
         class="st3" /></g><g
       id="g35"><g
         id="g37"><g
           id="g39"><path
             style="fill:#232856"
             inkscape:connector-curvature="0"
             id="path41"
             d="M 203.7,276.7"
             class="st0" /><g
             id="g43"><path
               style="fill:none;stroke:#232856;stroke-width:5.49709988;stroke-miterlimit:3.86369991"
               inkscape:connector-curvature="0"
               id="path45"
               d="M 203.7,276.7"
               class="st4" /></g></g><g
           id="g47"><g
             id="g49"><g
               id="g51"><path
                 style="fill:#232856"
                 inkscape:connector-curvature="0"
                 id="path53"
                 d="M 181.2,72.3"
                 class="st0" /></g><g
               id="g55"><path
                 style="fill:#232856"
                 inkscape:connector-curvature="0"
                 id="path57"
                 d="M 181.2,72.3"
                 class="st0" /></g></g><path
             style="fill:#232856"
             inkscape:connector-curvature="0"
             id="path59"
             d="m 391.8,352.1 -11,-22.5 -37.1,14.2 -44.9,-100.3 -101.7,0 -1.8,-17.8 75.1,0 0,-26.2 -78.8,0 -9.6,-84.7 -23.4,-2.7 13.3,156.2 104.5,0 9.2,19.5 c 0.8,5.9 1,12 0.6,18.2 -3.3,48.1 -45.1,84.4 -93.1,81 -48.1,-3.3 -84.4,-45 -81,-93.1 2.2,-31.3 20.6,-57.6 46.5,-71.2 l -2.1,-24.6 c -39.8,16.7 -67.7,56 -67.7,101.8 0,61 49.4,110.4 110.4,110.4 50.6,0 93.3,-34.1 106.3,-80.6 l 23.6,49.9 62.7,-27.5 z"
             class="st0" /></g></g></g></g><g
     id="g61"
     transform="matrix(0.99421086,0,0,0.99951465,-8.6800769,1.3156445)"><polygon
       style="fill:#232856"
       id="polygon63"
       points="300.2,64 285.9,122.9 269.9,122.9 253,44.1 268,44.1 278.7,98.3 291.9,44.1 309.1,44.1 321.8,99.1 332.7,44.1 347.4,44.1 330,122.9 314.5,122.9 "
       class="st0" /><path
       style="fill:#232856"
       inkscape:connector-curvature="0"
       id="path65"
       d="m 400.9,93.9 14.1,4.8 c -2.1,8.7 -5.8,15.1 -10.8,19.3 -5,4.2 -11.4,6.3 -19.1,6.3 -9.6,0 -17.4,-3.6 -23.6,-10.8 -6.1,-7.1 -9.2,-17 -9.2,-29.3 0,-13.1 3.1,-23.3 9.3,-30.6 6.2,-7.2 14.3,-10.9 24.4,-10.9 8.8,0 16,2.9 21.4,8.6 3.2,3.3 5.8,8.2 7.3,14.6 l -14.3,3.8 c -0.9,-4.1 -2.7,-7.3 -5.3,-9.7 -2.7,-2.3 -6,-3.6 -9.9,-3.6 -5.3,0 -9.7,2.1 -13,6.3 -3.3,4.2 -5,11 -5,20.3 0,10 1.7,17.1 4.9,21.3 3.2,4.2 7.6,6.3 12.8,6.3 3.9,0 7.2,-1.3 10,-4 2.8,-2.7 4.8,-6.9 6,-12.7 z"
       class="st0" /></g><g
     id="g67"
     transform="matrix(1.0890727,0,0,1.0953597,-21.558573,-21.224)"><polygon
       class="st5"
       points="434.2,431.4 21.8,431.4 21.8,21.2 434.2,21.2 "
       id="polygon69"
       style="fill:none;stroke:#232856;stroke-width:4;stroke-miterlimit:10" /></g><ellipse
     class="st0"
     cx="154.90913"
     cy="77.878471"
     id="circle71"
     style="fill:#232856"
     rx="32.311852"
     ry="32.48423" /></svg>