<?xml version="1.0" encoding="UTF-8" standalone="no"?>
<!-- Generator: Adobe Illustrator 22.0.1, SVG Export Plug-In . SVG Version: 6.00 Build 0)  -->

<svg
   xmlns:dc="http://purl.org/dc/elements/1.1/"
   xmlns:cc="http://creativecommons.org/ns#"
   xmlns:rdf="http://www.w3.org/1999/02/22-rdf-syntax-ns#"
   xmlns:svg="http://www.w3.org/2000/svg"
   xmlns="http://www.w3.org/2000/svg"
   xmlns:sodipodi="http://sodipodi.sourceforge.net/DTD/sodipodi-0.dtd"
   xmlns:inkscape="http://www.inkscape.org/namespaces/inkscape"
   version="1.1"
   id="svg2"
   inkscape:version="0.91 r13725"
   sodipodi:docname="Toilette-ist-teilweise-rollstuhlgerecht.svg"
   x="0px"
   y="0px"
   viewBox="0 0 453.5 453.5"
   style="enable-background:new 0 0 453.5 453.5;"
   xml:space="preserve"><metadata
     id="metadata73"><rdf:RDF><cc:Work
         rdf:about=""><dc:format>image/svg+xml</dc:format><dc:type
           rdf:resource="http://purl.org/dc/dcmitype/StillImage" /><dc:title /></cc:Work></rdf:RDF></metadata><defs
     id="defs71" /><style
     type="text/css"
     id="style3">
	.st0{fill:#232856;}
	.st1{fill:none;stroke:#232856;stroke-width:15;stroke-miterlimit:3.8637;}
	.st2{fill:none;stroke:#232856;stroke-width:4;stroke-miterlimit:10;}
	.st3{fill:#FFFFFF;}
	.st4{fill:none;stroke:#FFFFFF;stroke-width:3.1445;stroke-miterlimit:3.8637;}
</style><sodipodi:namedview
     bordercolor="#666666"
     borderopacity="1"
     gridtolerance="10"
     guidetolerance="10"
     id="namedview4"
     inkscape:current-layer="svg2"
     inkscape:cx="207.02096"
     inkscape:cy="203.12921"
     inkscape:pageopacity="0"
     inkscape:pageshadow="2"
     inkscape:window-height="1056"
     inkscape:window-maximized="1"
     inkscape:window-width="1920"
     inkscape:window-x="0"
     inkscape:window-y="24"
     inkscape:zoom="1.6705097"
     objecttolerance="10"
     pagecolor="#ffffff"
     showgrid="false" /><g
     id="Ebene-4_2_"
     transform="matrix(0.99421086,0,0,0.99951465,1.3199231,1.3156445)"><g
       id="g7"><g
         id="g9"><path
           class="st0"
           d="M 227.3,227.3"
           id="path11"
           inkscape:connector-curvature="0"
           style="fill:#232856" /></g><g
         id="g13"><path
           class="st1"
           d="M 227.3,227.3"
           id="path15"
           inkscape:connector-curvature="0"
           style="fill:none;stroke:#232856;stroke-width:15;stroke-miterlimit:3.86369991" /></g></g></g><g
     id="Ebene-5_2_"
     transform="matrix(1.0890727,0,0,1.0953597,-21.558573,-21.224)"><g
       id="g18"><g
         id="g20"><polygon
           class="st2"
           points="21.8,21.2 434.2,21.2 434.2,431.4 21.8,431.4 "
           id="polygon22"
           style="fill:none;stroke:#232856;stroke-width:4;stroke-miterlimit:10" /><path
           class="st2"
           d="M 228,226.3"
           id="path24"
           inkscape:connector-curvature="0"
           style="fill:none;stroke:#232856;stroke-width:4;stroke-miterlimit:10" /></g><g
         id="g26"><polygon
           class="st2"
           points="21.8,21.2 434.2,21.2 434.2,431.4 21.8,431.4 "
           id="polygon28"
           style="fill:none;stroke:#232856;stroke-width:4;stroke-miterlimit:10" /><path
           class="st2"
           d="M 228,226.3"
           id="path30"
           inkscape:connector-curvature="0"
           style="fill:none;stroke:#232856;stroke-width:4;stroke-miterlimit:10" /></g></g></g><g
     id="rollifahrer_1_"
     transform="matrix(0.99421086,0,0,0.99951465,1.3199231,1.3156445)"><g
       id="g33"><g
         id="g35"><g
           id="g37"><path
             class="st0"
             d="M 82.1,67.1"
             id="path39"
             inkscape:connector-curvature="0"
             style="fill:#232856" /></g><g
           id="g41"><path
             class="st0"
             d="M 82.1,67.1"
             id="path43"
             inkscape:connector-curvature="0"
             style="fill:#232856" /></g></g><path
         class="st0"
         d="m 180.9,176.3 c 0,0 -49.3,-26.3 -58.3,-36.8 C 113.6,129 99.1,104 99.1,104 l -32.8,0 c 0,0 -8.5,16 -8.5,18.8 0,2.8 -0.5,90.3 0.5,99 1,8.7 11.5,23.5 11.5,23.5 l 0.3,167.3 21.5,0 0,-9.8 0,0 -0.3,-156 c 0,0 11.5,-18.5 11.8,-26.3 0.3,-7.8 -0.3,-64 -0.3,-64 l 69.8,35.8 8.3,-16 z"
         id="path45"
         inkscape:connector-curvature="0"
         style="fill:#232856" /><g
         id="g47"><g
           id="g49"><g
             id="g51"><path
               class="st3"
               d="M 239.7,164"
               id="path53"
               inkscape:connector-curvature="0"
               style="fill:#ffffff" /></g><g
             id="g55"><path
               class="st4"
               d="M 239.7,164"
               id="path57"
               inkscape:connector-curvature="0"
               style="fill:none;stroke:#ffffff;stroke-width:3.14450002;stroke-miterlimit:3.86369991" /></g></g><path
           class="st0"
           d="m 386.3,340.6 -31.7,12.8 -40,-85.4 -87.2,1.5 -1.9,-15.3 64.5,-1.1 -0.4,-22.4 -67.6,1.2 -9.5,-72.6 -20.1,-2 13.7,133.8 89.7,-1.6 8.2,16.5 c 2.1,13 0.8,26.7 -4.5,39.9 -15.5,38.4 -59.2,56.9 -97.5,41.4 -38.4,-15.5 -56.9,-59.2 -41.4,-97.5 6.7,-16.6 18.8,-29.5 33.4,-37.6 l -2.2,-21 c -21.5,9.5 -39.5,26.9 -49.2,50.4 -20,48.3 2.9,103.7 51.2,123.8 48.3,20 103.7,-2.9 123.8,-51.2 1.7,-4.1 3.1,-8.2 4.1,-12.4 l 21,42.5 53.4,-24.6 -9.8,-19.1 z"
           id="path59"
           inkscape:connector-curvature="0"
           style="fill:#232856" /></g></g></g><g
     id="g61"
     transform="matrix(0.99421086,0,0,0.99951465,1.3199231,1.3156445)"><polygon
       class="st0"
       points="291.9,44.1 309.1,44.1 321.8,99.1 332.7,44.1 347.4,44.1 330,122.9 314.5,122.9 300.2,64 285.9,122.9 269.9,122.9 253,44.1 268,44.1 278.7,98.3 "
       id="polygon63"
       style="fill:#232856" /><path
       class="st0"
       d="m 400.9,93.9 14.1,4.8 c -2.1,8.7 -5.8,15.1 -10.8,19.3 -5,4.2 -11.4,6.3 -19.1,6.3 -9.6,0 -17.4,-3.6 -23.6,-10.8 -6.1,-7.1 -9.2,-17 -9.2,-29.3 0,-13.1 3.1,-23.3 9.3,-30.6 6.2,-7.2 14.3,-10.9 24.4,-10.9 8.8,0 16,2.9 21.4,8.6 3.2,3.3 5.8,8.2 7.3,14.6 l -14.3,3.8 c -0.9,-4.1 -2.7,-7.3 -5.3,-9.7 -2.7,-2.3 -6,-3.6 -9.9,-3.6 -5.3,0 -9.7,2.1 -13,6.3 -3.3,4.2 -5,11 -5,20.3 0,10 1.7,17.1 4.9,21.3 3.2,4.2 7.6,6.3 12.8,6.3 3.9,0 7.2,-1.3 10,-4 2.8,-2.7 4.8,-6.9 6,-12.7 z"
       id="path65"
       inkscape:connector-curvature="0"
       style="fill:#232856" /></g><ellipse
     class="st0"
     cx="205.63025"
     cy="125.65527"
     id="circle67"
     style="fill:#232856"
     rx="27.340799"
     ry="27.486654" /><ellipse
     class="st0"
     cx="82.944633"
     cy="72.381142"
     id="circle69"
     style="fill:#232856"
     rx="27.340799"
     ry="27.486654" /></svg>