<?xml version="1.0" encoding="UTF-8" standalone="no"?>
<!-- Generator: Adobe Illustrator 22.0.1, SVG Export Plug-In . SVG Version: 6.00 Build 0)  -->

<svg
   xmlns:dc="http://purl.org/dc/elements/1.1/"
   xmlns:cc="http://creativecommons.org/ns#"
   xmlns:rdf="http://www.w3.org/1999/02/22-rdf-syntax-ns#"
   xmlns:svg="http://www.w3.org/2000/svg"
   xmlns="http://www.w3.org/2000/svg"
   xmlns:sodipodi="http://sodipodi.sourceforge.net/DTD/sodipodi-0.dtd"
   xmlns:inkscape="http://www.inkscape.org/namespaces/inkscape"
   version="1.1"
   id="svg2"
   inkscape:version="0.91 r13725"
   sodipodi:docname="toilet-available.svg"
   x="0px"
   y="0px"
   viewBox="0 0 453.5 453.5"
   style="enable-background:new 0 0 453.5 453.5;"
   xml:space="preserve"><metadata
     id="metadata92"><rdf:RDF><cc:Work
         rdf:about=""><dc:format>image/svg+xml</dc:format><dc:type
           rdf:resource="http://purl.org/dc/dcmitype/StillImage" /><dc:title /></cc:Work></rdf:RDF></metadata><defs
     id="defs90" /><style
     type="text/css"
     id="style3">
	.st0{fill:#232856;}
	.st1{fill:none;stroke:#232856;stroke-width:4;stroke-miterlimit:10;}
</style><sodipodi:namedview
     bordercolor="#666666"
     borderopacity="1"
     gridtolerance="10"
     guidetolerance="10"
     id="namedview4"
     inkscape:current-layer="svg2"
     inkscape:cx="3.070622"
     inkscape:cy="-75.969572"
     inkscape:pageopacity="0"
     inkscape:pageshadow="2"
     inkscape:window-height="1056"
     inkscape:window-maximized="1"
     inkscape:window-width="1920"
     inkscape:window-x="0"
     inkscape:window-y="24"
     inkscape:zoom="0.77815733"
     objecttolerance="10"
     pagecolor="#ffffff"
     showgrid="false" /><g
     id="Ebene-5_1_"
     transform="matrix(1.0890727,0,0,1.0953597,-21.558573,-21.224)"><g
       id="g18"><g
         id="g20"><path
           class="st0"
           d="M 228,226.3"
           id="path22"
           inkscape:connector-curvature="0"
           style="fill:#232856" /></g><g
         id="g24"><polygon
           class="st1"
           points="21.8,21.2 434.2,21.2 434.2,431.4 21.8,431.4 "
           id="polygon26"
           style="fill:none;stroke:#232856;stroke-width:4;stroke-miterlimit:10" /></g></g></g><g
     id="g84"
     transform="matrix(2.4062202,0,0,2.4190566,-581.66835,15.236259)"><polygon
       class="st0"
       points="253,44.1 268,44.1 278.7,98.3 291.9,44.1 309.1,44.1 321.8,99.1 332.7,44.1 347.4,44.1 330,122.9 314.5,122.9 300.2,64 285.9,122.9 269.9,122.9 "
       id="polygon86"
       style="fill:#232856" /><path
       class="st0"
       d="m 400.9,93.9 14.1,4.8 c -2.1,8.7 -5.8,15.1 -10.8,19.3 -5,4.2 -11.4,6.3 -19.1,6.3 -9.6,0 -17.4,-3.6 -23.6,-10.8 -6.1,-7.1 -9.2,-17 -9.2,-29.3 0,-13.1 3.1,-23.3 9.3,-30.6 6.2,-7.2 14.3,-10.9 24.4,-10.9 8.8,0 16,2.9 21.4,8.6 3.2,3.3 5.8,8.2 7.3,14.6 l -14.3,3.8 c -0.9,-4.1 -2.7,-7.3 -5.3,-9.7 -2.7,-2.3 -6,-3.6 -9.9,-3.6 -5.3,0 -9.7,2.1 -13,6.3 -3.3,4.2 -5,11 -5,20.3 0,10 1.7,17.1 4.9,21.3 3.2,4.2 7.6,6.3 12.8,6.3 3.9,0 7.2,-1.3 10,-4 2.8,-2.7 4.8,-6.9 6,-12.7 z"
       id="path88"
       inkscape:connector-curvature="0"
       style="fill:#232856" /></g></svg>